<?xml version="1.0" standalone="no"?>
<!DOCTYPE svg PUBLIC "-//W3C//DTD SVG 20010904//EN"
 "http://www.w3.org/TR/2001/REC-SVG-20010904/DTD/svg10.dtd">
<svg version="1.0" xmlns="http://www.w3.org/2000/svg"
 width="190.000000pt" height="190.000000pt" viewBox="0 0 190.000000 190.000000"
 preserveAspectRatio="xMidYMid meet">
<metadata>
Created by potrace 1.14, written by Peter Selinger 2001-2017
</metadata>
<g transform="translate(0.000000,190.000000) scale(0.100000,-0.100000)"
fill="#000000" stroke="none">
<path d="M870 1514 c-266 -51 -443 -255 -444 -514 -1 -151 53 -280 158 -378
60 -55 157 -117 175 -110 19 7 -20 74 -53 92 -53 28 -131 112 -164 174 -51 98
-66 198 -46 302 21 109 64 184 148 262 141 130 385 150 551 45 255 -161 293
-509 80 -719 -25 -25 -61 -53 -79 -63 -33 -18 -56 -51 -56 -80 0 -20 2 -19 60
10 81 41 175 137 217 221 171 346 -56 742 -436 759 -47 2 -97 1 -111 -1z"/>
<path d="M908 1415 c-1 -1 -20 -5 -40 -8 -98 -13 -226 -104 -283 -201 -87
-148 -68 -352 45 -482 34 -40 95 -85 103 -77 13 12 7 23 -44 76 -121 124 -149
289 -75 437 122 244 457 278 632 64 116 -141 104 -362 -27 -494 -48 -48 -64
-76 -49 -85 9 -6 65 39 107 85 13 14 38 54 55 90 31 61 33 71 33 175 0 104 -2
114 -32 176 -54 109 -148 191 -263 228 -33 10 -155 23 -162 16z"/>
<path d="M840 1304 c-240 -86 -298 -392 -105 -562 42 -37 45 -43 45 -90 0 -27
6 -62 14 -77 8 -15 17 -54 21 -86 11 -90 26 -103 127 -107 73 -3 87 -1 108 17
l25 20 -55 1 c-56 1 -132 9 -139 16 -2 1 30 2 70 1 79 -1 129 7 129 23 0 5
-30 9 -67 9 -62 0 -111 6 -119 13 -1 2 32 4 74 5 93 2 115 6 120 21 3 9 -20
12 -75 12 -43 0 -83 4 -90 8 -6 4 19 8 56 8 37 1 78 4 92 7 31 8 50 52 51 114
0 42 4 51 32 72 195 148 160 455 -64 563 -60 28 -187 35 -250 12z m234 -53
c56 -27 110 -82 138 -140 32 -65 32 -178 -1 -241 -27 -52 -64 -95 -105 -121
-28 -17 -30 -22 -30 -81 l-1 -63 -122 -3 c-94 -2 -123 0 -124 10 -1 7 -2 37
-4 67 -1 38 -7 56 -19 63 -41 23 -89 75 -114 122 -36 70 -38 180 -3 246 41 81
106 136 180 156 63 17 153 10 205 -15z"/>
<path d="M802 995 c1 -85 4 -152 8 -150 4 2 7 65 6 139 -1 81 3 131 8 126 5
-5 8 -68 7 -140 -1 -71 2 -130 6 -130 5 0 8 25 7 55 -1 30 1 55 6 55 4 0 7
-15 6 -32 -2 -18 1 -44 5 -58 4 -15 8 12 8 73 1 59 -3 97 -9 97 -6 0 -8 -15
-6 -35 3 -19 1 -35 -4 -35 -4 0 -8 27 -8 61 0 50 2 57 12 42 7 -10 41 -64 76
-120 35 -57 67 -103 73 -103 5 0 2 11 -7 25 -20 31 -21 41 -1 25 24 -20 18 -5
-39 88 -76 126 -107 172 -117 172 -4 0 26 -54 68 -120 42 -66 74 -123 71 -125
-3 -3 -41 51 -84 120 -43 69 -82 125 -86 125 -4 0 -7 -70 -6 -155z"/>
<path d="M870 1145 c0 -4 178 -294 186 -304 2 -2 6 -2 9 0 7 7 -179 309 -191
309 -2 0 -4 -2 -4 -5z"/>
<path d="M915 1123 c8 -16 42 -71 75 -123 33 -52 68 -110 77 -127 32 -62 38
-41 38 116 0 82 -4 153 -8 157 -4 4 -7 -57 -7 -136 0 -79 -3 -140 -6 -137 -4
4 -7 67 -6 142 0 74 -3 135 -7 135 -4 0 -7 -54 -6 -120 0 -73 -3 -116 -8 -111
-5 5 -9 60 -8 121 1 62 -2 109 -6 107 -5 -3 -8 -49 -8 -102 1 -81 -1 -93 -11
-74 -6 12 -9 34 -5 48 6 26 6 65 1 111 -2 14 -6 -10 -9 -53 l-6 -77 -45 75
c-25 41 -48 75 -53 75 -4 0 -1 -12 8 -27z"/>
<path d="M884 920 c0 -44 4 -80 8 -80 9 0 7 135 -2 150 -4 6 -6 -26 -6 -70z"/>
<path d="M1010 875 c0 -15 18 -40 24 -34 3 3 -1 14 -9 25 -8 10 -14 15 -15 9z"/>
</g>
</svg>
